<svg xmlns="http://www.w3.org/2000/svg" viewBox="0 0 88 46.07"><defs><style>.cls-1{fill:#f99d1c;}.cls-2{fill:#c90000;}.cls-3{fill:#383838;}.cls-4{fill:#fff;}</style></defs><title>logo</title><g id="Layer_2" data-name="Layer 2"><g id="Layer_1-2" data-name="Layer 1"><g id="Layer_1-2-2" data-name="Layer 1-2"><path class="cls-1" d="M29.21,12l-.53.51-.14-.17a.41.41,0,0,0-.07.11c-.16.75-.83,1.1-1.28,1.63-.22.25-.41.58-.83.57-.09,0-.2.19-.27.31l-.45.82-.12,0,.13-.36-.11-.1-.51.51-.78.78c-.28.27-.57.53-.84.8v.22a.63.63,0,0,0,.23-.08l.47-.43.1.09-.41.49a1.07,1.07,0,0,0,.28.19,10.1,10.1,0,0,1,4,2.48,10.46,10.46,0,0,1,2.33,3.46,13.88,13.88,0,0,1,1.13,4.38,14.89,14.89,0,0,1-1.18,7.48,15.07,15.07,0,0,1-2.26,3.48,3.32,3.32,0,0,1-.46.38l-.1-.34A7.37,7.37,0,0,1,24.65,42a10.47,10.47,0,0,1-.91.55,3.43,3.43,0,0,1-.71.14c-.13,0-.4,0-.2.3a.75.75,0,0,1-.25.22,6.24,6.24,0,0,1-.94.35l.43-.37a61.72,61.72,0,0,1-8.13,2.3l.24.15a13.84,13.84,0,0,1-5.09.24l.79-.07V45.7a34.54,34.54,0,0,1-7.22-1.1l.6-.11-1-.36.55-.24a.88.88,0,0,1,.87-.07,4.47,4.47,0,0,0,1.71,0,.08.08,0,0,0,.07,0c.33-.43.41-.46,1-.36h.18a1.88,1.88,0,0,0,.53-.07A19,19,0,0,0,4,42.58l4.64.08v-.2l-3-.37V42c.18,0,.37-.07.55-.07.78,0,1.55-.06,2.33-.06A2,2,0,0,1,9,42a1,1,0,0,0,.34.06,4.17,4.17,0,0,1,.78-.1A4.43,4.43,0,0,0,12,41.74a10.34,10.34,0,0,1,2-.19,17.35,17.35,0,0,0,5.23-1.46,4.85,4.85,0,0,0,.9-.48C14,42.21,7.8,41.76,1.59,40v-.15c.09,0,.18-.1.26-.09l3.54.7c.75.16,1.49.35,2.25.49.15,0,.32-.11.48-.11H9.41v-.16l.47.28c.28-.59.39.2.62,0l-.05-.32.39.17V40.7a4,4,0,0,1,1.1-.05,6.56,6.56,0,0,0,2.42-.09A13.16,13.16,0,0,0,16.85,40,17.77,17.77,0,0,0,21,38.35a14.14,14.14,0,0,0,3.55-2.84c.24-.3.64-.47.84-.79a11.44,11.44,0,0,0,.72-1.55.55.55,0,0,0,0-.4l-1,1.43h-.05l.22-.62.52-1.48V32c-.47-.46,0-1.07-.21-1.48.13-.2.31-.34.31-.49-.06-1.86-.29-3.71-1.62-5.12a4.78,4.78,0,0,0-3.77-1.73,2.73,2.73,0,0,0-.91.35c-.39.18-.75.46-1.17.05-.1-.09-.32-.06-.52-.09l-.06-.3a1.57,1.57,0,0,0-.45.22c-.93.9-1.85,1.82-2.77,2.72-.15.15-.32.27-.52.44l.07-.46-.51.38c-.05-.2-.1-.37-.14-.54s0-.3.21-.46a12,12,0,0,0,1.08-1.28L14.35,24l.93-1.24-.13-.14L13.6,23.76h0l1.93-2.58-.07-.1c-.21.16-.44.31-.64.49s-.45.43-.67.65a3.23,3.23,0,0,1-.7.57l1.52-2.09c-.59-.43-.81.07-1.24.24a5.3,5.3,0,0,0,.23-.67.43.43,0,0,0-.06-.35c-.24-.28-.51-.53-.76-.79h.16V18L16,17.16a1,1,0,0,1,.35.06A19,19,0,0,0,14,18a5.12,5.12,0,0,0,2.81-.68l-.45-.09s.08-.1.13-.11c1.18-.07,1.77-1,2.49-1.71,1-1,2-2,3-3.09.5-.53.92-1.12,1.38-1.69a.81.81,0,0,1,.19-.18,9.12,9.12,0,0,0,2.21-2.3H21.14a.69.69,0,0,0-.35,0c-.72.47-1.54.23-2.31.32a7.25,7.25,0,0,0-3.18.61,2.94,2.94,0,0,1-.79.4,1.33,1.33,0,0,1-.74,0,1.41,1.41,0,0,1-1-.94.23.23,0,0,0-.17-.13c-.31,0-.43-.26-.6-.48-.33-.4-.53-.84-.18-1.25a1.78,1.78,0,0,1,1-.48c.93-.17,1.88-.29,2.82-.39.24,0,.36-.13.32-.3a.48.48,0,0,0-.34-.32H13.8l1-.22V4.81a8,8,0,0,0-3.41.09c.24.78.84.2,1.22.4l-2,.7-.11.47-.29-.27L10,6c-.25-.17-.56-.25-.56-.67a1,1,0,0,0-.33-.55c-.46-.47.15-.92,0-1.39a1.19,1.19,0,0,1,.58-.32c.73-.11,1.47-.16,2.2-.25,1.46-.18,2.91-.38,4.37-.53.27,0,.71-.18.72.39,1.71-.11,3.39-.25,5.07-.33,1.11-.05,2.23,0,3.35,0h3.09c.72,0,1.44.08,2.15.15.1,0,.23.17.25.29s0,.35.08.43a10.07,10.07,0,0,1,1.52,1.06,2.41,2.41,0,0,1,.18,3A3.13,3.13,0,0,0,32.4,8a.38.38,0,0,0,.08.34c.27.17.15.3,0,.46l-2.93,3a.24.24,0,0,0-.16.06l1.07-1.34-.11-.09L28.73,12.2ZM19.28,6.8a1.42,1.42,0,0,0-.45-.16,10.92,10.92,0,0,0-2.06.13,6,6,0,0,0-1.09.35v.09l3.57-.43L21.38,7V6.87a2.91,2.91,0,0,0-1.66-.33C19.58,6.51,19.43,6.7,19.28,6.8ZM25,23.7l.12-.1a1.75,1.75,0,0,0-1.21-1.35,2.26,2.26,0,0,1-.33-.13,9.2,9.2,0,0,0-1.5-.68,2.35,2.35,0,0,0-1.73.1,1,1,0,0,0,.41.15c.55.06,1.11.08,1.65.17A3,3,0,0,1,24.29,23C24.5,23.24,24.76,23.46,25,23.7Zm-6.6-7,.07.11h.28c1.33-1.33,2.63-2.67,3.89-4-.53,0-.67.37-.94.65-.76.82-1.58,1.58-2.38,2.37ZM26,34.7c.25-.44.45-.83.68-1.21.13-.22.39-.4.43-.62.14-.73.22-1.47.31-2.21a.81.81,0,0,0-.08-.25h-.19c-.16.7-.3,1.41-.49,2.11s-.43,1.39-.67,2.17ZM27.2,29a2.14,2.14,0,0,0,.12-.25,7.47,7.47,0,0,0-1-3.86c0-.05-.15-.05-.23-.08s0,.17,0,.23a11,11,0,0,1,1,3.65C27,28.8,27.09,28.88,27.2,29ZM9.68,3.37A6.56,6.56,0,0,0,13.05,3,16,16,0,0,0,9.68,3.37Zm18.1,35.76a9.64,9.64,0,0,0,2.28-3.43ZM16.07,19.65c.29-.23.48-.38.66-.54a.39.39,0,0,0-.07-.22,6.14,6.14,0,0,0-.7.3A2.37,2.37,0,0,0,16.07,19.65Zm9.81,7.53c.06.4,0,.77.37,1C26.51,27.65,26.44,27.41,25.88,27.18Z"/><path class="cls-2" d="M0,41.24c.46-.24.8-.21,1,.24,0,.08.21.1.32.14a17.94,17.94,0,0,1,2.09.85Z"/><path class="cls-2" d="M6.78,45.74l2.14.18v.15L6.77,46Z"/><path class="cls-2" d="M4.65,45.64l-1.93-.39A2.41,2.41,0,0,1,4.65,45.64Z"/><path class="cls-2" d="M15.72,25.78l-1,1a1.69,1.69,0,0,1,.87-1.13Z"/><path class="cls-2" d="M19.56,44.5,18.2,45l-.06-.17,1.37-.45Z"/><path class="cls-3" d="M38.21,27.75a3.82,3.82,0,0,1-.19.6,2,2,0,0,1-.63.94,1.49,1.49,0,0,1-1.23.21c-.8-.22-1.19-.89-1.66-1.46a7.37,7.37,0,0,1-.83-1.44,6.09,6.09,0,0,1-.5-2.1c0-.09.08-.19.12-.29l.37.17.13-.26c-.23.07-.24-.44-.58-.06V24a9.5,9.5,0,0,1,.23-1.4c.15-.49.22-1,.36-1.47.25-.87.49-1.74.76-2.6a14.33,14.33,0,0,1,.53-1.44c.19-.44.35-.72.5-1.09.27-.64.49-1.3.77-1.93s.61-1.25.92-1.88L38,10.68c.28-.56.59-1.1.85-1.66a7,7,0,0,0,.35-1.1c.12-.46.21-.93.33-1.39,0-.06.15-.13.23-.13a3.41,3.41,0,0,1,2.53,1,4.76,4.76,0,0,1,.82,1.07,1.56,1.56,0,0,1,0,1.51c-.44.85-.92,1.68-1.38,2.51l-1.12,2q-.59,1.08-1.14,2.16c-.07.13-.09.29-.16.42a4.25,4.25,0,0,1-.31.43,1.85,1.85,0,0,1-.08.47c-.24.56-.51,1.11-.75,1.67-.14.32-.23.65-.35,1-.18.51-.39,1-.55,1.52s-.26,1-.37,1.43A1.92,1.92,0,0,0,37,24c.3-.6.57-1.14.85-1.67.09-.17.23-.33.32-.5s.12-.33.2-.48l1.5-2.76c.27-.49.53-1,.81-1.47.05-.09.16-.14.23-.2s-.06-.09,0-.12c.31-.56.63-1.13,1-1.68s.61-1,.94-1.54.8-1.19,1.21-1.78,1-1.42,1.52-2.09C46.24,8.83,47,8,47.76,7.18a5.15,5.15,0,0,1,1.77-1.29,3.15,3.15,0,0,1,2.6.06,3.94,3.94,0,0,1,1.92,2,2,2,0,0,1,.14,1,6.09,6.09,0,0,1-1.13,2.56c-.34.55-.65,1.12-1,1.69s-.68,1.23-1,1.85c-.49.91-1,1.81-1.46,2.73-.3.58-.61,1.16-.87,1.76a5.68,5.68,0,0,0-.27,1c-.13.55-.24,1.1-.38,1.65a21.78,21.78,0,0,0-.39,2.53,3.21,3.21,0,0,0,.53,1.75c.07.17.29.32.16.56,0,0,.08.14.13.15a1.82,1.82,0,0,0,.33,0L48.66,27c.29-.31.61-.63.91-1a3.15,3.15,0,0,0,.28-.51c.3-.48.61-.95.9-1.43s.54-.93.78-1.4c.38-.73.76-1.47,1.12-2.21.23-.49.4-1,.62-1.51.32-.73.65-1.46,1-2.18s.67-1.33,1-2c.21-.4.46-.79.68-1.19a5,5,0,0,1,.26-.52.39.39,0,0,1,.28-.16,3.24,3.24,0,0,1,1.83.87A2.61,2.61,0,0,1,59,14.94c.1.45-.19.75-.42,1.06-.43.6-.88,1.17-1.32,1.76a5.5,5.5,0,0,0-.43.64,1.55,1.55,0,0,0-.08.36l-.19-.17c0,.06.07.13,0,.17A20,20,0,0,0,54.42,26h0c0,.21.07.39.08.58s0,.41,0,.7a13,13,0,0,0,1.6-2.09c.54-1,1.12-2,1.68-3,.26-.45.54-.89.77-1.36s.47-.18.71-.21h.25l-.76-.12c1.64-2.81,3.07-5.66,4.93-8.35a11.23,11.23,0,0,1,1.47.74,1.34,1.34,0,0,1,.23,1.86c-.42.65-.86,1.28-1.24,2s-.69,1.3-1,2-.61,1.37-.86,2.07a16.22,16.22,0,0,0-.42,1.7,12.36,12.36,0,0,0-.4,2.9c0,.49.06,1,.09,1.49l.31.14c.49-.56,1-1.11,1.49-1.73s1.05-1.59,1.55-2.4.89-1.49,1.31-2.25c.27-.49.51-1,.76-1.51s.53-1.13.81-1.69l.71-1.4,1.18-2.3c.22-.44.45-.87.69-1.3a1.1,1.1,0,0,1,.2-.23,3.57,3.57,0,0,1,.23-.57c.36-.62.75-1.23,1.11-1.86s.83-1.54,1.28-2.29,1.1-1.78,1.65-2.67a15.88,15.88,0,0,0,1-1.79,3.16,3.16,0,0,0,.27-1c.05-.4.07-.44.4-.29.64.31,1.29.6,1.92,1a2.18,2.18,0,0,1,1,.85,1.66,1.66,0,0,1,.18,1.27,6,6,0,0,1-1,1.67C78,7.34,77.44,8.15,76.85,9s-1.09,1.44-1.61,2.17-.89,1.3-1.32,2-.84,1.35-1.23,2-.62,1.21-.9,1.82-.6,1.36-.85,2.06a16.3,16.3,0,0,0-.47,1.72c-.1.38-.21.76-.29,1.14a5.51,5.51,0,0,0-.08.71c-.07.6-.11,1.21-.12,1.82s.12,1.4.19,2.1c0,.09.09.17.19.34L71.69,25c.68-1,1.37-2,2-3a14,14,0,0,0,.77-1.49q.39-.81.72-1.65c.22-.56.42-1.22.66-1.82.39-1,.8-2,1.21-3,.18-.42.39-.83.6-1.24.42-.79.86-1.56,1.28-2.35.21-.4.39-.81.59-1.21s.31-.55.46-.83.31-.6.48-.9.42-.77.65-1.15c.34-.57.69-1.13,1-1.69s.67-1,1-1.45a21.4,21.4,0,0,0,1.36-1.73A7.56,7.56,0,0,0,85,0a1.55,1.55,0,0,1,1.15.47,5.07,5.07,0,0,1,.83.84,8.38,8.38,0,0,1,.68,1A1.79,1.79,0,0,1,88,3a1.25,1.25,0,0,1-.47,1c-.39.43-.76.88-1.13,1.33s-.77,1-1.17,1.45A1.06,1.06,0,0,1,84.9,7l-.23.1v.08L84.8,7c.08.19.07.19-.19.53-.43.58-.84,1.16-1.26,1.75-.56.79-1.14,1.56-1.65,2.38s-1,1.77-1.53,2.67-1,1.76-1.45,2.66c-.24.49-.45,1-.64,1.51s-.38,1-.54,1.53-.2.91-.37,1.34-.07.56-.16.84a4.77,4.77,0,0,0-.08,1c0,.61-.09,1.23-.12,1.84,0,.26-.12.58,0,.76.24.38,0,.76.14,1.12,0,.1.15.18.27.31a26.92,26.92,0,0,0,2.13-2,27.27,27.27,0,0,0,1.8-2.22c.5-.67,1-1.36,1.42-2.06s.68-1.12,1-1.68.52-.82.77-1.24.58-.94.88-1.4a9.77,9.77,0,0,1,.63-.81c0-.06.14-.07.23-.12a3.48,3.48,0,0,1,.45,1.61,5.93,5.93,0,0,1-.08,1.26,16,16,0,0,1-.64,1.67v.12a1.09,1.09,0,0,1-.84.74.26.26,0,0,0-.14.21l.61-.14c-.22.43-.4.86-.64,1.26-.34.59-.71,1.17-1.09,1.74s-.87,1.26-1.31,1.88a12.81,12.81,0,0,1-2.08,2.27,3.21,3.21,0,0,1-1.54.74,2.9,2.9,0,0,1-2.25-.61c-.08-.05-.29-.15-.08-.32-.47-.07-.68-.46-.92-.8s-.44-.67-.65-1-.34-.6-.51-.9c-.06,0-.11,0-.13.05-.27.31-.19.22-.47-.06s-.22-.82-.27-1.23v-.08a4.15,4.15,0,0,0-.19.93c0,.17.2.38.37.49a.48.48,0,0,1,.22.63.44.44,0,0,1-.08.11,8.11,8.11,0,0,1-1.38,2,2.19,2.19,0,0,1-1.51.64,2.44,2.44,0,0,1-1.41-.59,8.54,8.54,0,0,1-1.9-2.48c-.09-.16-.26-.26-.15-.48l-.22-.23c-.07-.08-.31-.4-.46-.61l.23-.2-.74-.08h0l.26.14.18.16-.26.13c.23.3-.14.46-.25.66-.52.89-1.09,1.76-1.66,2.62a2.37,2.37,0,0,1-1.39,1.15,1.56,1.56,0,0,1-1.3-.3,4.75,4.75,0,0,1-1.33-1.49,13.48,13.48,0,0,0-1-1.26,8.15,8.15,0,0,1-.47-.72c-.47.71-.89,1.39-1.37,2a7,7,0,0,1-1.13,1.24,1.92,1.92,0,0,1-1.59.44A2.54,2.54,0,0,1,53.07,28l-.92-1.64c-.24.39-.47.75-.69,1.12a3.15,3.15,0,0,1-1.25,1.33,1.93,1.93,0,0,1-1.89,0,5.52,5.52,0,0,1-2.11-2.15,4.43,4.43,0,0,1-.7-1.86,12,12,0,0,1-.16-1.8,18.28,18.28,0,0,1,.34-2.2A12.24,12.24,0,0,1,46,19.6c.21-.67.44-1.34.67-2s.36-1,.58-1.5.48-.94.72-1.41.51-1,.78-1.57a6.37,6.37,0,0,1,.41-.72.6.6,0,0,1,.21-.14V12c.54-.87,1.09-1.73,1.62-2.6.3-.49.56-1,.83-1.52l-.06-.09-.79.37a6.54,6.54,0,0,0-2,1.54c-.47.51-.92,1.06-1.35,1.6s-.74,1-1.11,1.46a12.6,12.6,0,0,1-.81,1.11,12.5,12.5,0,0,0-.91,1.48c-.3.42-.55.87-.81,1.31s-.47.77-.68,1.17c-.39.71-.76,1.42-1.14,2.13,0,.07-.14.1-.16.12a3.43,3.43,0,0,1-.54,1.22c-.19.37-.26.84-.66,1.06,0,.06.05.18,0,.27-.19.44-.4.87-.61,1.29s-.47.95-.71,1.42a2.2,2.2,0,0,1-.2.23c.18.38-.41.54-.31.92h-.4v.05l.29.06-.3.74a1.51,1.51,0,0,0-.21-.23c-.11-.07-.22-.28-.36,0S38,27.55,38.21,27.75Zm43.08-4,.11.09.46-.21v-.12a1.69,1.69,0,0,0-.45,0,1.89,1.89,0,0,0-.11.27Zm-19.86-2.7V21L61,20.64l-.17.41Zm22.89-1.36c-.18-.25-.36-.26-.54,0,.22.31.22.31.55,0Zm-46.6,8.64h0a2.46,2.46,0,0,0-.45-.25l-.22.14c-.08.05.09.12.14.13a4.87,4.87,0,0,0,.54,0Z"/><path class="cls-4" d="M38.21,27.75c-.17-.2-.38-.39-.25-.7l.59.34Z"/><path class="cls-1" d="M82.88,33.7c.15.48-.22.88-.65,1.28-.13.12-.22.19-.51.08a14.64,14.64,0,0,0-2.91-.75c-.75-.12-1.52-.21-2.29-.29s-1.85-.15-2.79-.19-1.67,0-2.51,0l-2.47,0H66l-3,.08H62.5l-7.64.75c-.89.09-1.77.24-2.65.36s-1.57.19-2.34.32c-.61.1-1.21.26-1.81.39l-.72.13c-.59.1-1.19.18-1.77.3-.79.15-1.57.32-2.35.49-1,.22-1.93.44-2.88.69-1.13.3-2.24.66-3.37,1a4.09,4.09,0,0,1-1.21.14.78.78,0,0,1-.5-.37A3.63,3.63,0,0,1,34.69,37,1.35,1.35,0,0,1,35,36c.21-.3.76-.27,1.21-.3s1-.1,1.48-.18.9-.21,1.35-.32c.6-.15,1.2-.31,1.81-.44l2.62-.55,2.19-.45c.73-.14,1.41-.23,2.12-.35L50.33,33c.43-.07.87-.11,1.31-.17l3.23-.4H55l5.56-.48c1.4-.11,2.79-.21,4.19-.27,1.16,0,2.32,0,3.48-.07h2.49c.65,0,1.28.06,1.93.08h.69a17.55,17.55,0,0,1,2.29.1c.76.1,1.68.16,2.51.25.58.06,1.17.09,1.72.2a6.88,6.88,0,0,1,2.55.7A.94.94,0,0,1,82.88,33.7Z"/></g></g></g></svg>